<?xml version="1.0" encoding="UTF-8" standalone="no"?>
<!DOCTYPE svg PUBLIC "-//W3C//DTD SVG 1.1//EN"
 "http://www.w3.org/Graphics/SVG/1.1/DTD/svg11.dtd">
<!-- Generated by graphviz version 2.36.0 (20140111.2315)
 -->
<!-- Title: models_diagram Pages: 1 -->
<svg width="978pt" height="884pt"
 viewBox="0.00 0.00 978.21 884.00" xmlns="http://www.w3.org/2000/svg" xmlns:xlink="http://www.w3.org/1999/xlink">
<g id="graph0" class="graph" transform="scale(1 1) rotate(0) translate(4 880)">
<title>models_diagram</title>
<polygon fill="none" stroke="none" points="-4,4 -4,-880 974.213,-880 974.213,4 -4,4"/>
<!-- _diagram_info -->
<g id="node1" class="node"><title>_diagram_info</title>
<text text-anchor="start" x="7" y="-794.6" font-family="Times,serif" font-size="13.00">Models diagram</text>
<text text-anchor="start" x="7" y="-780.6" font-family="Times,serif" font-size="13.00">Date: Sep 25 2015 &#45; 15:50</text>
<text text-anchor="start" x="7" y="-766.6" font-family="Times,serif" font-size="13.00">Migration version: 20150925063611</text>
<text text-anchor="start" x="7" y="-752.6" font-family="Times,serif" font-size="13.00">Generated by RailRoady 1.3.1</text>
<text text-anchor="start" x="7" y="-738.6" font-family="Times,serif" font-size="13.00">http://railroady.prestonlee.com</text>
</g>
<!-- Syllabus -->
<g id="node2" class="node"><title>Syllabus</title>
<path fill="none" stroke="black" d="M22.5,-317.5C22.5,-317.5 153.5,-317.5 153.5,-317.5 159.5,-317.5 165.5,-323.5 165.5,-329.5 165.5,-329.5 165.5,-426.5 165.5,-426.5 165.5,-432.5 159.5,-438.5 153.5,-438.5 153.5,-438.5 22.5,-438.5 22.5,-438.5 16.5,-438.5 10.5,-432.5 10.5,-426.5 10.5,-426.5 10.5,-329.5 10.5,-329.5 10.5,-323.5 16.5,-317.5 22.5,-317.5"/>
<text text-anchor="middle" x="88" y="-423.3" font-family="Times,serif" font-size="14.00">Syllabus</text>
<polyline fill="none" stroke="black" points="10.5,-415.5 165.5,-415.5 "/>
<text text-anchor="start" x="18.5" y="-400.3" font-family="Times,serif" font-size="14.00">id :integer</text>
<text text-anchor="start" x="18.5" y="-385.3" font-family="Times,serif" font-size="14.00">topics :string</text>
<text text-anchor="start" x="18.5" y="-370.3" font-family="Times,serif" font-size="14.00">syllabus_description :text</text>
<text text-anchor="start" x="18.5" y="-355.3" font-family="Times,serif" font-size="14.00">course_id :integer</text>
<text text-anchor="start" x="18.5" y="-340.3" font-family="Times,serif" font-size="14.00">created_at :datetime</text>
<text text-anchor="start" x="18.5" y="-325.3" font-family="Times,serif" font-size="14.00">updated_at :datetime</text>
</g>
<!-- CourseSyllabus -->
<g id="node9" class="node"><title>CourseSyllabus</title>
<path fill="none" stroke="black" d="M302.5,-1C302.5,-1 409.5,-1 409.5,-1 415.5,-1 421.5,-7 421.5,-13 421.5,-13 421.5,-95 421.5,-95 421.5,-101 415.5,-107 409.5,-107 409.5,-107 302.5,-107 302.5,-107 296.5,-107 290.5,-101 290.5,-95 290.5,-95 290.5,-13 290.5,-13 290.5,-7 296.5,-1 302.5,-1"/>
<text text-anchor="middle" x="356" y="-91.8" font-family="Times,serif" font-size="14.00">CourseSyllabus</text>
<polyline fill="none" stroke="black" points="290.5,-84 421.5,-84 "/>
<text text-anchor="start" x="298.5" y="-68.8" font-family="Times,serif" font-size="14.00">id :integer</text>
<text text-anchor="start" x="298.5" y="-53.8" font-family="Times,serif" font-size="14.00">course_id :integer</text>
<text text-anchor="start" x="298.5" y="-38.8" font-family="Times,serif" font-size="14.00">syllabus_id :integer</text>
<text text-anchor="start" x="298.5" y="-23.8" font-family="Times,serif" font-size="14.00">created_at :datetime</text>
<text text-anchor="start" x="298.5" y="-8.8" font-family="Times,serif" font-size="14.00">updated_at :datetime</text>
</g>
<!-- Syllabus&#45;&gt;CourseSyllabus -->
<g id="edge1" class="edge"><title>Syllabus&#45;&gt;CourseSyllabus</title>
<path fill="none" stroke="#d0ebc0" d="M143.177,-310.705C191.049,-253.187 259.746,-170.649 306.025,-115.045"/>
<ellipse fill="none" stroke="#d0ebc0" cx="140.34" cy="-314.114" rx="4.00002" ry="4.00002"/>
<polygon fill="#d0ebc0" stroke="#d0ebc0" points="306.288,-114.729 316.144,-109.921 309.487,-110.885 312.685,-107.042 312.685,-107.042 312.685,-107.042 309.487,-110.885 309.226,-104.164 306.288,-114.729 306.288,-114.729"/>
</g>
<!-- Course -->
<g id="node13" class="node"><title>Course</title>
<path fill="none" stroke="black" d="M531.5,-144.5C531.5,-144.5 656.5,-144.5 656.5,-144.5 662.5,-144.5 668.5,-150.5 668.5,-156.5 668.5,-156.5 668.5,-253.5 668.5,-253.5 668.5,-259.5 662.5,-265.5 656.5,-265.5 656.5,-265.5 531.5,-265.5 531.5,-265.5 525.5,-265.5 519.5,-259.5 519.5,-253.5 519.5,-253.5 519.5,-156.5 519.5,-156.5 519.5,-150.5 525.5,-144.5 531.5,-144.5"/>
<text text-anchor="middle" x="594" y="-250.3" font-family="Times,serif" font-size="14.00">Course</text>
<polyline fill="none" stroke="black" points="519.5,-242.5 668.5,-242.5 "/>
<text text-anchor="start" x="527.5" y="-227.3" font-family="Times,serif" font-size="14.00">id :integer</text>
<text text-anchor="start" x="527.5" y="-212.3" font-family="Times,serif" font-size="14.00">course_name :string</text>
<text text-anchor="start" x="527.5" y="-197.3" font-family="Times,serif" font-size="14.00">course_type :string</text>
<text text-anchor="start" x="527.5" y="-182.3" font-family="Times,serif" font-size="14.00">course_duration :integer</text>
<text text-anchor="start" x="527.5" y="-167.3" font-family="Times,serif" font-size="14.00">created_at :datetime</text>
<text text-anchor="start" x="527.5" y="-152.3" font-family="Times,serif" font-size="14.00">updated_at :datetime</text>
</g>
<!-- Syllabus&#45;&gt;Course -->
<g id="edge2" class="edge"><title>Syllabus&#45;&gt;Course</title>
<path fill="none" stroke="#870db4" d="M157.584,-311.66C162.944,-308.102 168.439,-304.831 174,-302 281.875,-247.075 421.216,-223.228 509.123,-213.116"/>
<polygon fill="#870db4" stroke="#870db4" points="157.476,-311.735 146.702,-313.779 153.379,-314.601 149.281,-317.466 149.281,-317.466 149.281,-317.466 153.379,-314.601 151.86,-321.154 157.476,-311.735 157.476,-311.735"/>
<polygon fill="#870db4" stroke="#870db4" points="509.379,-213.088 519.817,-216.451 514.348,-212.533 519.317,-211.979 519.317,-211.979 519.317,-211.979 514.348,-212.533 518.818,-207.507 509.379,-213.088 509.379,-213.088"/>
</g>
<!-- Tutor -->
<g id="node3" class="node"><title>Tutor</title>
<path fill="none" stroke="black" d="M243.5,-664.5C243.5,-664.5 362.5,-664.5 362.5,-664.5 368.5,-664.5 374.5,-670.5 374.5,-676.5 374.5,-676.5 374.5,-863.5 374.5,-863.5 374.5,-869.5 368.5,-875.5 362.5,-875.5 362.5,-875.5 243.5,-875.5 243.5,-875.5 237.5,-875.5 231.5,-869.5 231.5,-863.5 231.5,-863.5 231.5,-676.5 231.5,-676.5 231.5,-670.5 237.5,-664.5 243.5,-664.5"/>
<text text-anchor="middle" x="303" y="-860.3" font-family="Times,serif" font-size="14.00">Tutor</text>
<polyline fill="none" stroke="black" points="231.5,-852.5 374.5,-852.5 "/>
<text text-anchor="start" x="239.5" y="-837.3" font-family="Times,serif" font-size="14.00">id :integer</text>
<text text-anchor="start" x="239.5" y="-822.3" font-family="Times,serif" font-size="14.00">tutor_name :string</text>
<text text-anchor="start" x="239.5" y="-807.3" font-family="Times,serif" font-size="14.00">qualification :string</text>
<text text-anchor="start" x="239.5" y="-792.3" font-family="Times,serif" font-size="14.00">experience :string</text>
<text text-anchor="start" x="239.5" y="-777.3" font-family="Times,serif" font-size="14.00">address :text</text>
<text text-anchor="start" x="239.5" y="-762.3" font-family="Times,serif" font-size="14.00">gender :string</text>
<text text-anchor="start" x="239.5" y="-747.3" font-family="Times,serif" font-size="14.00">hourly_rate :integer</text>
<text text-anchor="start" x="239.5" y="-732.3" font-family="Times,serif" font-size="14.00">location :string</text>
<text text-anchor="start" x="239.5" y="-717.3" font-family="Times,serif" font-size="14.00">phone_number :integer</text>
<text text-anchor="start" x="239.5" y="-702.3" font-family="Times,serif" font-size="14.00">email_id :string</text>
<text text-anchor="start" x="239.5" y="-687.3" font-family="Times,serif" font-size="14.00">created_at :datetime</text>
<text text-anchor="start" x="239.5" y="-672.3" font-family="Times,serif" font-size="14.00">updated_at :datetime</text>
</g>
<!-- BatchTutor -->
<g id="node6" class="node"><title>BatchTutor</title>
<path fill="none" stroke="black" d="M195.5,-325C195.5,-325 302.5,-325 302.5,-325 308.5,-325 314.5,-331 314.5,-337 314.5,-337 314.5,-419 314.5,-419 314.5,-425 308.5,-431 302.5,-431 302.5,-431 195.5,-431 195.5,-431 189.5,-431 183.5,-425 183.5,-419 183.5,-419 183.5,-337 183.5,-337 183.5,-331 189.5,-325 195.5,-325"/>
<text text-anchor="middle" x="249" y="-415.8" font-family="Times,serif" font-size="14.00">BatchTutor</text>
<polyline fill="none" stroke="black" points="183.5,-408 314.5,-408 "/>
<text text-anchor="start" x="191.5" y="-392.8" font-family="Times,serif" font-size="14.00">id :integer</text>
<text text-anchor="start" x="191.5" y="-377.8" font-family="Times,serif" font-size="14.00">batch_id :integer</text>
<text text-anchor="start" x="191.5" y="-362.8" font-family="Times,serif" font-size="14.00">tutor_id :integer</text>
<text text-anchor="start" x="191.5" y="-347.8" font-family="Times,serif" font-size="14.00">created_at :datetime</text>
<text text-anchor="start" x="191.5" y="-332.8" font-family="Times,serif" font-size="14.00">updated_at :datetime</text>
</g>
<!-- Tutor&#45;&gt;BatchTutor -->
<g id="edge3" class="edge"><title>Tutor&#45;&gt;BatchTutor</title>
<path fill="none" stroke="#2d0786" d="M287.417,-656.456C277.724,-586.45 265.625,-499.066 257.623,-441.278"/>
<ellipse fill="none" stroke="#2d0786" cx="287.98" cy="-660.525" rx="4.00001" ry="4.00001"/>
<polygon fill="#2d0786" stroke="#2d0786" points="257.599,-441.104 260.685,-430.582 256.913,-436.152 256.228,-431.199 256.228,-431.199 256.228,-431.199 256.913,-436.152 251.77,-431.816 257.599,-441.104 257.599,-441.104"/>
</g>
<!-- Batch -->
<g id="node7" class="node"><title>Batch</title>
<path fill="none" stroke="black" d="M342.5,-491C342.5,-491 497.5,-491 497.5,-491 503.5,-491 509.5,-497 509.5,-503 509.5,-503 509.5,-615 509.5,-615 509.5,-621 503.5,-627 497.5,-627 497.5,-627 342.5,-627 342.5,-627 336.5,-627 330.5,-621 330.5,-615 330.5,-615 330.5,-503 330.5,-503 330.5,-497 336.5,-491 342.5,-491"/>
<text text-anchor="middle" x="420" y="-611.8" font-family="Times,serif" font-size="14.00">Batch</text>
<polyline fill="none" stroke="black" points="330.5,-604 509.5,-604 "/>
<text text-anchor="start" x="338.5" y="-588.8" font-family="Times,serif" font-size="14.00">id :integer</text>
<text text-anchor="start" x="338.5" y="-573.8" font-family="Times,serif" font-size="14.00">batch_name :string</text>
<text text-anchor="start" x="338.5" y="-558.8" font-family="Times,serif" font-size="14.00">batch_type :string</text>
<text text-anchor="start" x="338.5" y="-543.8" font-family="Times,serif" font-size="14.00">batch_duration :string</text>
<text text-anchor="start" x="338.5" y="-528.8" font-family="Times,serif" font-size="14.00">batch_commenced_date :date</text>
<text text-anchor="start" x="338.5" y="-513.8" font-family="Times,serif" font-size="14.00">created_at :datetime</text>
<text text-anchor="start" x="338.5" y="-498.8" font-family="Times,serif" font-size="14.00">updated_at :datetime</text>
</g>
<!-- Tutor&#45;&gt;Batch -->
<g id="edge4" class="edge"><title>Tutor&#45;&gt;Batch</title>
<path fill="none" stroke="#98d4fc" d="M366.637,-655.324C370.261,-648.85 373.859,-642.423 377.374,-636.143"/>
<polygon fill="#98d4fc" stroke="#98d4fc" points="366.556,-655.468 357.745,-661.996 364.114,-659.831 361.671,-664.194 361.671,-664.194 361.671,-664.194 364.114,-659.831 365.598,-666.392 366.556,-655.468 366.556,-655.468"/>
<polygon fill="#98d4fc" stroke="#98d4fc" points="377.574,-635.787 386.385,-629.259 380.016,-631.424 382.459,-627.061 382.459,-627.061 382.459,-627.061 380.016,-631.424 378.532,-624.863 377.574,-635.787 377.574,-635.787"/>
</g>
<!-- BatchCourse -->
<g id="node4" class="node"><title>BatchCourse</title>
<path fill="none" stroke="black" d="M540.5,-1C540.5,-1 647.5,-1 647.5,-1 653.5,-1 659.5,-7 659.5,-13 659.5,-13 659.5,-95 659.5,-95 659.5,-101 653.5,-107 647.5,-107 647.5,-107 540.5,-107 540.5,-107 534.5,-107 528.5,-101 528.5,-95 528.5,-95 528.5,-13 528.5,-13 528.5,-7 534.5,-1 540.5,-1"/>
<text text-anchor="middle" x="594" y="-91.8" font-family="Times,serif" font-size="14.00">BatchCourse</text>
<polyline fill="none" stroke="black" points="528.5,-84 659.5,-84 "/>
<text text-anchor="start" x="536.5" y="-68.8" font-family="Times,serif" font-size="14.00">id :integer</text>
<text text-anchor="start" x="536.5" y="-53.8" font-family="Times,serif" font-size="14.00">batch_id :integer</text>
<text text-anchor="start" x="536.5" y="-38.8" font-family="Times,serif" font-size="14.00">course_id :integer</text>
<text text-anchor="start" x="536.5" y="-23.8" font-family="Times,serif" font-size="14.00">created_at :datetime</text>
<text text-anchor="start" x="536.5" y="-8.8" font-family="Times,serif" font-size="14.00">updated_at :datetime</text>
</g>
<!-- ProjectInvolvedByStudent -->
<g id="node5" class="node"><title>ProjectInvolvedByStudent</title>
<path fill="none" stroke="black" d="M578,-506C578,-506 714,-506 714,-506 720,-506 726,-512 726,-518 726,-518 726,-600 726,-600 726,-606 720,-612 714,-612 714,-612 578,-612 578,-612 572,-612 566,-606 566,-600 566,-600 566,-518 566,-518 566,-512 572,-506 578,-506"/>
<text text-anchor="middle" x="646" y="-596.8" font-family="Times,serif" font-size="14.00">ProjectInvolvedByStudent</text>
<polyline fill="none" stroke="black" points="566,-589 726,-589 "/>
<text text-anchor="start" x="574" y="-573.8" font-family="Times,serif" font-size="14.00">id :integer</text>
<text text-anchor="start" x="574" y="-558.8" font-family="Times,serif" font-size="14.00">student_id :integer</text>
<text text-anchor="start" x="574" y="-543.8" font-family="Times,serif" font-size="14.00">project_id :integer</text>
<text text-anchor="start" x="574" y="-528.8" font-family="Times,serif" font-size="14.00">created_at :datetime</text>
<text text-anchor="start" x="574" y="-513.8" font-family="Times,serif" font-size="14.00">updated_at :datetime</text>
</g>
<!-- Student -->
<g id="node10" class="node"><title>Student</title>
<path fill="none" stroke="black" d="M569.5,-302.5C569.5,-302.5 714.5,-302.5 714.5,-302.5 720.5,-302.5 726.5,-308.5 726.5,-314.5 726.5,-314.5 726.5,-441.5 726.5,-441.5 726.5,-447.5 720.5,-453.5 714.5,-453.5 714.5,-453.5 569.5,-453.5 569.5,-453.5 563.5,-453.5 557.5,-447.5 557.5,-441.5 557.5,-441.5 557.5,-314.5 557.5,-314.5 557.5,-308.5 563.5,-302.5 569.5,-302.5"/>
<text text-anchor="middle" x="642" y="-438.3" font-family="Times,serif" font-size="14.00">Student</text>
<polyline fill="none" stroke="black" points="557.5,-430.5 726.5,-430.5 "/>
<text text-anchor="start" x="565.5" y="-415.3" font-family="Times,serif" font-size="14.00">id :integer</text>
<text text-anchor="start" x="565.5" y="-400.3" font-family="Times,serif" font-size="14.00">student_name :string</text>
<text text-anchor="start" x="565.5" y="-385.3" font-family="Times,serif" font-size="14.00">student_qualification :string</text>
<text text-anchor="start" x="565.5" y="-370.3" font-family="Times,serif" font-size="14.00">email_id :string</text>
<text text-anchor="start" x="565.5" y="-355.3" font-family="Times,serif" font-size="14.00">phone_number :integer</text>
<text text-anchor="start" x="565.5" y="-340.3" font-family="Times,serif" font-size="14.00">address :text</text>
<text text-anchor="start" x="565.5" y="-325.3" font-family="Times,serif" font-size="14.00">created_at :datetime</text>
<text text-anchor="start" x="565.5" y="-310.3" font-family="Times,serif" font-size="14.00">updated_at :datetime</text>
</g>
<!-- ProjectInvolvedByStudent&#45;&gt;Student -->
<g id="edge6" class="edge"><title>ProjectInvolvedByStudent&#45;&gt;Student</title>
<path fill="none" stroke="#72d1da" d="M644.65,-497.57C644.406,-486.651 644.147,-475.085 643.891,-463.626"/>
<ellipse fill="none" stroke="#72d1da" cx="644.743" cy="-501.746" rx="4" ry="4"/>
<polygon fill="#72d1da" stroke="#72d1da" points="643.891,-463.599 648.166,-453.501 643.779,-458.601 643.667,-453.602 643.667,-453.602 643.667,-453.602 643.779,-458.601 639.168,-453.702 643.891,-463.599 643.891,-463.599"/>
</g>
<!-- Project -->
<g id="node15" class="node"><title>Project</title>
<path fill="none" stroke="black" d="M756.5,-310C756.5,-310 881.5,-310 881.5,-310 887.5,-310 893.5,-316 893.5,-322 893.5,-322 893.5,-434 893.5,-434 893.5,-440 887.5,-446 881.5,-446 881.5,-446 756.5,-446 756.5,-446 750.5,-446 744.5,-440 744.5,-434 744.5,-434 744.5,-322 744.5,-322 744.5,-316 750.5,-310 756.5,-310"/>
<text text-anchor="middle" x="819" y="-430.8" font-family="Times,serif" font-size="14.00">Project</text>
<polyline fill="none" stroke="black" points="744.5,-423 893.5,-423 "/>
<text text-anchor="start" x="752.5" y="-407.8" font-family="Times,serif" font-size="14.00">id :integer</text>
<text text-anchor="start" x="752.5" y="-392.8" font-family="Times,serif" font-size="14.00">project_name :string</text>
<text text-anchor="start" x="752.5" y="-377.8" font-family="Times,serif" font-size="14.00">project_description :text</text>
<text text-anchor="start" x="752.5" y="-362.8" font-family="Times,serif" font-size="14.00">project_start_date :date</text>
<text text-anchor="start" x="752.5" y="-347.8" font-family="Times,serif" font-size="14.00">project_status :date</text>
<text text-anchor="start" x="752.5" y="-332.8" font-family="Times,serif" font-size="14.00">created_at :datetime</text>
<text text-anchor="start" x="752.5" y="-317.8" font-family="Times,serif" font-size="14.00">updated_at :datetime</text>
</g>
<!-- ProjectInvolvedByStudent&#45;&gt;Project -->
<g id="edge5" class="edge"><title>ProjectInvolvedByStudent&#45;&gt;Project</title>
<path fill="none" stroke="#66b9a2" d="M702.078,-499.977C716.383,-485.176 731.96,-469.059 746.941,-453.558"/>
<ellipse fill="none" stroke="#66b9a2" cx="699.284" cy="-502.868" rx="4.00002" ry="4.00002"/>
<polygon fill="#66b9a2" stroke="#66b9a2" points="747.29,-453.197 757.476,-449.133 750.765,-449.601 754.24,-446.006 754.24,-446.006 754.24,-446.006 750.765,-449.601 751.004,-442.879 747.29,-453.197 747.29,-453.197"/>
</g>
<!-- Batch&#45;&gt;BatchCourse -->
<g id="edge8" class="edge"><title>Batch&#45;&gt;BatchCourse</title>
<path fill="none" stroke="#eccd6b" d="M460.984,-483.462C465.212,-473.75 469.036,-463.775 472,-454 512.293,-321.111 452.124,-269.765 511,-144 515.711,-133.936 521.99,-124.251 528.993,-115.214"/>
<ellipse fill="none" stroke="#eccd6b" cx="459.316" cy="-487.181" rx="4.00002" ry="4.00002"/>
<polygon fill="#eccd6b" stroke="#eccd6b" points="529.002,-115.203 538.804,-110.285 532.157,-111.324 535.313,-107.445 535.313,-107.445 535.313,-107.445 532.157,-111.324 531.822,-104.606 529.002,-115.203 529.002,-115.203"/>
</g>
<!-- Batch&#45;&gt;BatchTutor -->
<g id="edge7" class="edge"><title>Batch&#45;&gt;BatchTutor</title>
<path fill="none" stroke="#3b3059" d="M350.052,-484.779C335.425,-469.468 320.169,-453.499 306.076,-438.746"/>
<ellipse fill="none" stroke="#3b3059" cx="353.076" cy="-487.945" rx="4.00002" ry="4.00002"/>
<polygon fill="#3b3059" stroke="#3b3059" points="305.73,-438.384 302.076,-428.044 302.276,-434.768 298.822,-431.153 298.822,-431.153 298.822,-431.153 302.276,-434.768 295.568,-434.261 305.73,-438.384 305.73,-438.384"/>
</g>
<!-- Batch&#45;&gt;Student -->
<g id="edge11" class="edge"><title>Batch&#45;&gt;Student</title>
<path fill="none" stroke="#9540ee" d="M511.246,-484.428C523.92,-474.209 536.949,-463.703 549.643,-453.468"/>
<polygon fill="#9540ee" stroke="#9540ee" points="511.081,-484.561 500.472,-487.335 507.189,-487.699 503.296,-490.838 503.296,-490.838 503.296,-490.838 507.189,-487.699 506.121,-494.341 511.081,-484.561 511.081,-484.561"/>
<polygon fill="#9540ee" stroke="#9540ee" points="549.713,-453.412 560.322,-450.638 553.605,-450.273 557.497,-447.135 557.497,-447.135 557.497,-447.135 553.605,-450.273 554.673,-443.632 549.713,-453.412 549.713,-453.412"/>
</g>
<!-- BatchStudent -->
<g id="node12" class="node"><title>BatchStudent</title>
<path fill="none" stroke="black" d="M344.5,-317.5C344.5,-317.5 451.5,-317.5 451.5,-317.5 457.5,-317.5 463.5,-323.5 463.5,-329.5 463.5,-329.5 463.5,-426.5 463.5,-426.5 463.5,-432.5 457.5,-438.5 451.5,-438.5 451.5,-438.5 344.5,-438.5 344.5,-438.5 338.5,-438.5 332.5,-432.5 332.5,-426.5 332.5,-426.5 332.5,-329.5 332.5,-329.5 332.5,-323.5 338.5,-317.5 344.5,-317.5"/>
<text text-anchor="middle" x="398" y="-423.3" font-family="Times,serif" font-size="14.00">BatchStudent</text>
<polyline fill="none" stroke="black" points="332.5,-415.5 463.5,-415.5 "/>
<text text-anchor="start" x="340.5" y="-400.3" font-family="Times,serif" font-size="14.00">id :integer</text>
<text text-anchor="start" x="340.5" y="-385.3" font-family="Times,serif" font-size="14.00">batch_id :integer</text>
<text text-anchor="start" x="340.5" y="-370.3" font-family="Times,serif" font-size="14.00">student_id :integer</text>
<text text-anchor="start" x="340.5" y="-355.3" font-family="Times,serif" font-size="14.00">student_fee :integer</text>
<text text-anchor="start" x="340.5" y="-340.3" font-family="Times,serif" font-size="14.00">created_at :datetime</text>
<text text-anchor="start" x="340.5" y="-325.3" font-family="Times,serif" font-size="14.00">updated_at :datetime</text>
</g>
<!-- Batch&#45;&gt;BatchStudent -->
<g id="edge10" class="edge"><title>Batch&#45;&gt;BatchStudent</title>
<path fill="none" stroke="#71ed2a" d="M410.747,-482.718C409.361,-471.438 407.937,-459.849 406.566,-448.693"/>
<ellipse fill="none" stroke="#71ed2a" cx="411.257" cy="-486.868" rx="4.00001" ry="4.00001"/>
<polygon fill="#71ed2a" stroke="#71ed2a" points="406.544,-448.515 409.79,-438.041 405.934,-443.552 405.324,-438.59 405.324,-438.59 405.324,-438.59 405.934,-443.552 400.857,-439.139 406.544,-448.515 406.544,-448.515"/>
</g>
<!-- Batch&#45;&gt;Course -->
<g id="edge9" class="edge"><title>Batch&#45;&gt;Course</title>
<path fill="none" stroke="#c49435" d="M488.06,-482.832C494.699,-473.5 500.863,-463.788 506,-454 538.626,-391.835 524.464,-367.78 549,-302 552.318,-293.104 556.126,-283.896 560.092,-274.862"/>
<polygon fill="#c49435" stroke="#c49435" points="488.035,-482.867 478.49,-488.265 485.076,-486.897 482.118,-490.928 482.118,-490.928 482.118,-490.928 485.076,-486.897 485.745,-493.591 488.035,-482.867 488.035,-482.867"/>
<polygon fill="#c49435" stroke="#c49435" points="560.183,-274.658 568.375,-267.369 562.225,-270.095 564.268,-265.531 564.268,-265.531 564.268,-265.531 562.225,-270.095 560.16,-263.693 560.183,-274.658 560.183,-274.658"/>
</g>
<!-- FeesPaid -->
<g id="node8" class="node"><title>FeesPaid</title>
<path fill="none" stroke="black" d="M660,-709.5C660,-709.5 768,-709.5 768,-709.5 774,-709.5 780,-715.5 780,-721.5 780,-721.5 780,-818.5 780,-818.5 780,-824.5 774,-830.5 768,-830.5 768,-830.5 660,-830.5 660,-830.5 654,-830.5 648,-824.5 648,-818.5 648,-818.5 648,-721.5 648,-721.5 648,-715.5 654,-709.5 660,-709.5"/>
<text text-anchor="middle" x="714" y="-815.3" font-family="Times,serif" font-size="14.00">FeesPaid</text>
<polyline fill="none" stroke="black" points="648,-807.5 780,-807.5 "/>
<text text-anchor="start" x="656" y="-792.3" font-family="Times,serif" font-size="14.00">id :integer</text>
<text text-anchor="start" x="656" y="-777.3" font-family="Times,serif" font-size="14.00">payment_type :string</text>
<text text-anchor="start" x="656" y="-762.3" font-family="Times,serif" font-size="14.00">payment_date :date</text>
<text text-anchor="start" x="656" y="-747.3" font-family="Times,serif" font-size="14.00">amount :integer</text>
<text text-anchor="start" x="656" y="-732.3" font-family="Times,serif" font-size="14.00">created_at :datetime</text>
<text text-anchor="start" x="656" y="-717.3" font-family="Times,serif" font-size="14.00">updated_at :datetime</text>
</g>
<!-- Student&#45;&gt;BatchCourse -->
<g id="edge12" class="edge"><title>Student&#45;&gt;BatchCourse</title>
<path fill="none" stroke="#c1335b" d="M674.61,-294.57C687.742,-248.899 695.85,-191.85 677,-144 673.028,-133.916 667.315,-124.3 660.718,-115.369"/>
<ellipse fill="none" stroke="#c1335b" cx="673.426" cy="-298.545" rx="4.00001" ry="4.00001"/>
<polygon fill="#c1335b" stroke="#c1335b" points="660.611,-115.232 657.976,-104.588 657.524,-111.299 654.436,-107.366 654.436,-107.366 654.436,-107.366 657.524,-111.299 650.897,-110.145 660.611,-115.232 660.611,-115.232"/>
</g>
<!-- Student&#45;&gt;Course -->
<g id="edge13" class="edge"><title>Student&#45;&gt;Course</title>
<path fill="none" stroke="#8886d4" d="M618.315,-292.623C616.715,-286.922 615.113,-281.214 613.537,-275.601"/>
<polygon fill="#8886d4" stroke="#8886d4" points="618.383,-292.866 616.754,-303.711 619.735,-297.68 621.086,-302.494 621.086,-302.494 621.086,-302.494 619.735,-297.68 625.419,-301.278 618.383,-292.866 618.383,-292.866"/>
<polygon fill="#8886d4" stroke="#8886d4" points="613.439,-275.25 615.068,-264.406 612.087,-270.436 610.736,-265.622 610.736,-265.622 610.736,-265.622 612.087,-270.436 606.403,-266.838 613.439,-275.25 613.439,-275.25"/>
</g>
<!-- ProjectStatus -->
<g id="node11" class="node"><title>ProjectStatus</title>
<path fill="none" stroke="black" d="M756.5,-506C756.5,-506 881.5,-506 881.5,-506 887.5,-506 893.5,-512 893.5,-518 893.5,-518 893.5,-600 893.5,-600 893.5,-606 887.5,-612 881.5,-612 881.5,-612 756.5,-612 756.5,-612 750.5,-612 744.5,-606 744.5,-600 744.5,-600 744.5,-518 744.5,-518 744.5,-512 750.5,-506 756.5,-506"/>
<text text-anchor="middle" x="819" y="-596.8" font-family="Times,serif" font-size="14.00">ProjectStatus</text>
<polyline fill="none" stroke="black" points="744.5,-589 893.5,-589 "/>
<text text-anchor="start" x="752.5" y="-573.8" font-family="Times,serif" font-size="14.00">id :integer</text>
<text text-anchor="start" x="752.5" y="-558.8" font-family="Times,serif" font-size="14.00">project_id :integer</text>
<text text-anchor="start" x="752.5" y="-543.8" font-family="Times,serif" font-size="14.00">project_description :text</text>
<text text-anchor="start" x="752.5" y="-528.8" font-family="Times,serif" font-size="14.00">created_at :datetime</text>
<text text-anchor="start" x="752.5" y="-513.8" font-family="Times,serif" font-size="14.00">updated_at :datetime</text>
</g>
<!-- ProjectStatus&#45;&gt;Project -->
<g id="edge14" class="edge"><title>ProjectStatus&#45;&gt;Project</title>
<path fill="none" stroke="#0da0fd" d="M819,-497.72C819,-484.349 819,-470.001 819,-456.063"/>
<ellipse fill="none" stroke="#0da0fd" cx="819" cy="-501.745" rx="4" ry="4"/>
<polygon fill="#0da0fd" stroke="#0da0fd" points="819,-456.006 823.5,-446.006 819,-451.006 819,-446.006 819,-446.006 819,-446.006 819,-451.006 814.5,-446.006 819,-456.006 819,-456.006"/>
</g>
<!-- Course&#45;&gt;BatchCourse -->
<g id="edge15" class="edge"><title>Course&#45;&gt;BatchCourse</title>
<path fill="none" stroke="#6f0089" d="M594,-136.113C594,-129.865 594,-123.555 594,-117.36"/>
<ellipse fill="none" stroke="#6f0089" cx="594" cy="-140.255" rx="4" ry="4"/>
<polygon fill="#6f0089" stroke="#6f0089" points="594,-117.074 598.5,-107.074 594,-112.074 594,-107.074 594,-107.074 594,-107.074 594,-112.074 589.5,-107.074 594,-117.074 594,-117.074"/>
</g>
<!-- Course&#45;&gt;CourseSyllabus -->
<g id="edge16" class="edge"><title>Course&#45;&gt;CourseSyllabus</title>
<path fill="none" stroke="#56f57c" d="M512.292,-152.847C485.67,-136.18 456.277,-117.779 430.234,-101.474"/>
<ellipse fill="none" stroke="#56f57c" cx="515.958" cy="-155.142" rx="4.00002" ry="4.00002"/>
<polygon fill="#56f57c" stroke="#56f57c" points="430.015,-101.337 423.927,-92.2165 425.777,-98.6839 421.539,-96.0307 421.539,-96.0307 421.539,-96.0307 425.777,-98.6839 419.151,-99.8449 430.015,-101.337 430.015,-101.337"/>
</g>
<!-- StudentEvaluation -->
<g id="node14" class="node"><title>StudentEvaluation</title>
<path fill="none" stroke="black" d="M458,-687C458,-687 618,-687 618,-687 624,-687 630,-693 630,-699 630,-699 630,-841 630,-841 630,-847 624,-853 618,-853 618,-853 458,-853 458,-853 452,-853 446,-847 446,-841 446,-841 446,-699 446,-699 446,-693 452,-687 458,-687"/>
<text text-anchor="middle" x="538" y="-837.8" font-family="Times,serif" font-size="14.00">StudentEvaluation</text>
<polyline fill="none" stroke="black" points="446,-830 630,-830 "/>
<text text-anchor="start" x="454" y="-814.8" font-family="Times,serif" font-size="14.00">id :integer</text>
<text text-anchor="start" x="454" y="-799.8" font-family="Times,serif" font-size="14.00">student_id :integer</text>
<text text-anchor="start" x="454" y="-784.8" font-family="Times,serif" font-size="14.00">course_id :integer</text>
<text text-anchor="start" x="454" y="-769.8" font-family="Times,serif" font-size="14.00">batch_id :integer</text>
<text text-anchor="start" x="454" y="-754.8" font-family="Times,serif" font-size="14.00">hours_spent :integer</text>
<text text-anchor="start" x="454" y="-739.8" font-family="Times,serif" font-size="14.00">remarks :text</text>
<text text-anchor="start" x="454" y="-724.8" font-family="Times,serif" font-size="14.00">mock_interview_remarks :text</text>
<text text-anchor="start" x="454" y="-709.8" font-family="Times,serif" font-size="14.00">created_at :datetime</text>
<text text-anchor="start" x="454" y="-694.8" font-family="Times,serif" font-size="14.00">updated_at :datetime</text>
</g>
<!-- StudentEvaluation&#45;&gt;Batch -->
<g id="edge19" class="edge"><title>StudentEvaluation&#45;&gt;Batch</title>
<path fill="none" stroke="#6132dd" d="M487.751,-680C479.493,-665.373 471.001,-650.332 462.941,-636.057"/>
<ellipse fill="none" stroke="#6132dd" cx="489.735" cy="-683.514" rx="4.00002" ry="4.00002"/>
<polygon fill="#6132dd" stroke="#6132dd" points="462.901,-635.986 461.903,-625.066 460.443,-631.632 457.985,-627.278 457.985,-627.278 457.985,-627.278 460.443,-631.632 454.066,-629.491 462.901,-635.986 462.901,-635.986"/>
</g>
<!-- StudentEvaluation&#45;&gt;Student -->
<g id="edge17" class="edge"><title>StudentEvaluation&#45;&gt;Student</title>
<path fill="none" stroke="#69042a" d="M531.139,-678.553C530.018,-622.534 534.337,-550.072 557,-490 560.534,-480.632 565.136,-471.401 570.37,-462.507"/>
<ellipse fill="none" stroke="#69042a" cx="531.242" cy="-682.697" rx="4" ry="4"/>
<polygon fill="#69042a" stroke="#69042a" points="570.538,-462.235 579.626,-456.099 573.169,-457.983 575.799,-453.731 575.799,-453.731 575.799,-453.731 573.169,-457.983 571.972,-451.364 570.538,-462.235 570.538,-462.235"/>
</g>
<!-- StudentEvaluation&#45;&gt;Course -->
<g id="edge18" class="edge"><title>StudentEvaluation&#45;&gt;Course</title>
<path fill="none" stroke="#4c7946" d="M611.985,-681.566C620.521,-674.829 629.568,-668.796 639,-664 691.582,-637.262 863.22,-672.45 902,-628 997.252,-518.822 987.866,-418.704 902,-302 875.301,-265.713 760.533,-237.122 678.924,-220.885"/>
<ellipse fill="none" stroke="#4c7946" cx="608.65" cy="-684.307" rx="4.00002" ry="4.00002"/>
<polygon fill="#4c7946" stroke="#4c7946" points="678.457,-220.793 669.51,-214.453 673.551,-219.831 668.644,-218.869 668.644,-218.869 668.644,-218.869 673.551,-219.831 667.779,-223.285 678.457,-220.793 678.457,-220.793"/>
</g>
</g>
</svg>
