<?xml version="1.0" encoding="UTF-8" standalone="no"?>
<!DOCTYPE svg PUBLIC "-//W3C//DTD SVG 1.1//EN"
 "http://www.w3.org/Graphics/SVG/1.1/DTD/svg11.dtd">
<!-- Generated by graphviz version 2.36.0 (20140111.2315)
 -->
<!-- Title: models_diagram Pages: 1 -->
<svg width="814pt" height="374pt"
 viewBox="0.00 0.00 813.57 374.00" xmlns="http://www.w3.org/2000/svg" xmlns:xlink="http://www.w3.org/1999/xlink">
<g id="graph0" class="graph" transform="scale(1 1) rotate(0) translate(4 370)">
<title>models_diagram</title>
<polygon fill="none" stroke="none" points="-4,4 -4,-370 809.573,-370 809.573,4 -4,4"/>
<!-- _diagram_info -->
<g id="node1" class="node"><title>_diagram_info</title>
<text text-anchor="start" x="7" y="-351.6" font-family="Times,serif" font-size="13.00">Models diagram</text>
<text text-anchor="start" x="7" y="-337.6" font-family="Times,serif" font-size="13.00">Date: Sep 25 2015 &#45; 15:50</text>
<text text-anchor="start" x="7" y="-323.6" font-family="Times,serif" font-size="13.00">Migration version: 20150925063611</text>
<text text-anchor="start" x="7" y="-309.6" font-family="Times,serif" font-size="13.00">Generated by RailRoady 1.3.1</text>
<text text-anchor="start" x="7" y="-295.6" font-family="Times,serif" font-size="13.00">http://railroady.prestonlee.com</text>
</g>
<!-- Syllabus -->
<g id="node2" class="node"><title>Syllabus</title>
<ellipse fill="none" stroke="black" cx="121" cy="-162" rx="40.4202" ry="18"/>
<text text-anchor="middle" x="121" y="-158.3" font-family="Times,serif" font-size="14.00">Syllabus</text>
</g>
<!-- CourseSyllabus -->
<g id="node9" class="node"><title>CourseSyllabus</title>
<ellipse fill="none" stroke="black" cx="306" cy="-18" rx="65.4659" ry="18"/>
<text text-anchor="middle" x="306" y="-14.3" font-family="Times,serif" font-size="14.00">CourseSyllabus</text>
</g>
<!-- Syllabus&#45;&gt;CourseSyllabus -->
<g id="edge1" class="edge"><title>Syllabus&#45;&gt;CourseSyllabus</title>
<path fill="none" stroke="#2d4f4c" d="M146.975,-141.062C181.138,-114.84 241.006,-68.887 276.734,-41.4639"/>
<ellipse fill="none" stroke="#2d4f4c" cx="143.622" cy="-143.636" rx="4.00002" ry="4.00002"/>
<polygon fill="#2d4f4c" stroke="#2d4f4c" points="276.903,-41.3343 287.575,-38.8151 280.869,-38.2898 284.835,-35.2454 284.835,-35.2454 284.835,-35.2454 280.869,-38.2898 282.095,-31.6757 276.903,-41.3343 276.903,-41.3343"/>
</g>
<!-- Course -->
<g id="node13" class="node"><title>Course</title>
<ellipse fill="none" stroke="black" cx="508" cy="-90" rx="35.6194" ry="18"/>
<text text-anchor="middle" x="508" y="-86.3" font-family="Times,serif" font-size="14.00">Course</text>
</g>
<!-- Syllabus&#45;&gt;Course -->
<g id="edge2" class="edge"><title>Syllabus&#45;&gt;Course</title>
<path fill="none" stroke="#a4f93c" d="M160.762,-146.799C164.203,-145.778 167.649,-144.827 171,-144 274.22,-118.536 398.381,-102.724 463.364,-95.5476"/>
<polygon fill="#a4f93c" stroke="#a4f93c" points="160.7,-146.818 149.811,-145.523 155.93,-148.317 151.16,-149.816 151.16,-149.816 151.16,-149.816 155.93,-148.317 152.509,-154.109 160.7,-146.818 160.7,-146.818"/>
<polygon fill="#a4f93c" stroke="#a4f93c" points="463.711,-95.51 474.139,-98.9029 468.682,-94.9696 473.652,-94.4293 473.652,-94.4293 473.652,-94.4293 468.682,-94.9696 473.166,-89.9556 463.711,-95.51 463.711,-95.51"/>
</g>
<!-- Tutor -->
<g id="node3" class="node"><title>Tutor</title>
<ellipse fill="none" stroke="black" cx="262" cy="-327" rx="30.3206" ry="18"/>
<text text-anchor="middle" x="262" y="-323.3" font-family="Times,serif" font-size="14.00">Tutor</text>
</g>
<!-- BatchTutor -->
<g id="node6" class="node"><title>BatchTutor</title>
<ellipse fill="none" stroke="black" cx="231" cy="-162" rx="50.5427" ry="18"/>
<text text-anchor="middle" x="231" y="-158.3" font-family="Times,serif" font-size="14.00">BatchTutor</text>
</g>
<!-- Tutor&#45;&gt;BatchTutor -->
<g id="edge3" class="edge"><title>Tutor&#45;&gt;BatchTutor</title>
<path fill="none" stroke="#58989d" d="M257.235,-300.945C251.556,-271.085 242.099,-221.36 236.225,-190.473"/>
<ellipse fill="none" stroke="#58989d" cx="257.994" cy="-304.935" rx="4.00001" ry="4.00001"/>
<polygon fill="#58989d" stroke="#58989d" points="236.177,-190.221 238.729,-179.556 235.243,-185.309 234.309,-180.397 234.309,-180.397 234.309,-180.397 235.243,-185.309 229.888,-181.238 236.177,-190.221 236.177,-190.221"/>
</g>
<!-- Batch -->
<g id="node7" class="node"><title>Batch</title>
<ellipse fill="none" stroke="black" cx="358" cy="-234" rx="31.2965" ry="18"/>
<text text-anchor="middle" x="358" y="-230.3" font-family="Times,serif" font-size="14.00">Batch</text>
</g>
<!-- Tutor&#45;&gt;Batch -->
<g id="edge4" class="edge"><title>Tutor&#45;&gt;Batch</title>
<path fill="none" stroke="#b76104" d="M285.066,-304.135C300.146,-289.841 319.77,-271.239 334.863,-256.932"/>
<polygon fill="#b76104" stroke="#b76104" points="284.682,-304.5 274.328,-308.113 281.053,-307.939 277.424,-311.379 277.424,-311.379 277.424,-311.379 281.053,-307.939 280.52,-314.645 284.682,-304.5 284.682,-304.5"/>
<polygon fill="#b76104" stroke="#b76104" points="335.038,-256.766 345.391,-253.153 338.667,-253.327 342.295,-249.887 342.295,-249.887 342.295,-249.887 338.667,-253.327 339.199,-246.621 335.038,-256.766 335.038,-256.766"/>
</g>
<!-- BatchCourse -->
<g id="node4" class="node"><title>BatchCourse</title>
<ellipse fill="none" stroke="black" cx="508" cy="-18" rx="55.3436" ry="18"/>
<text text-anchor="middle" x="508" y="-14.3" font-family="Times,serif" font-size="14.00">BatchCourse</text>
</g>
<!-- ProjectInvolvedByStudent -->
<g id="node5" class="node"><title>ProjectInvolvedByStudent</title>
<ellipse fill="none" stroke="black" cx="549" cy="-234" rx="103.486" ry="18"/>
<text text-anchor="middle" x="549" y="-230.3" font-family="Times,serif" font-size="14.00">ProjectInvolvedByStudent</text>
</g>
<!-- Student -->
<g id="node10" class="node"><title>Student</title>
<ellipse fill="none" stroke="black" cx="548" cy="-162" rx="37.5442" ry="18"/>
<text text-anchor="middle" x="548" y="-158.3" font-family="Times,serif" font-size="14.00">Student</text>
</g>
<!-- ProjectInvolvedByStudent&#45;&gt;Student -->
<g id="edge6" class="edge"><title>ProjectInvolvedByStudent&#45;&gt;Student</title>
<path fill="none" stroke="#89f586" d="M548.638,-207.64C548.558,-202.063 548.473,-196.132 548.393,-190.476"/>
<ellipse fill="none" stroke="#89f586" cx="548.696" cy="-211.697" rx="4" ry="4"/>
<polygon fill="#89f586" stroke="#89f586" points="548.387,-190.103 552.744,-180.04 548.316,-185.104 548.244,-180.104 548.244,-180.104 548.244,-180.104 548.316,-185.104 543.745,-180.169 548.387,-190.103 548.387,-190.103"/>
</g>
<!-- Project -->
<g id="node15" class="node"><title>Project</title>
<ellipse fill="none" stroke="black" cx="684" cy="-162" rx="35.6194" ry="18"/>
<text text-anchor="middle" x="684" y="-158.3" font-family="Times,serif" font-size="14.00">Project</text>
</g>
<!-- ProjectInvolvedByStudent&#45;&gt;Project -->
<g id="edge5" class="edge"><title>ProjectInvolvedByStudent&#45;&gt;Project</title>
<path fill="none" stroke="#dfcc70" d="M587.667,-212.951C607.711,-202.557 631.932,-189.998 651.073,-180.073"/>
<ellipse fill="none" stroke="#dfcc70" cx="583.862" cy="-214.923" rx="4.00002" ry="4.00002"/>
<polygon fill="#dfcc70" stroke="#dfcc70" points="651.143,-180.037 662.092,-179.429 655.581,-177.736 660.02,-175.434 660.02,-175.434 660.02,-175.434 655.581,-177.736 657.949,-171.439 651.143,-180.037 651.143,-180.037"/>
</g>
<!-- Batch&#45;&gt;BatchCourse -->
<g id="edge8" class="edge"><title>Batch&#45;&gt;BatchCourse</title>
<path fill="none" stroke="#28613c" d="M385.668,-215.986C398.803,-206.728 413.815,-194.255 424,-180 453.668,-138.476 437.411,-116.155 463,-72 468.931,-61.7653 476.916,-51.5996 484.513,-42.95"/>
<ellipse fill="none" stroke="#28613c" cx="382.311" cy="-218.274" rx="4.00002" ry="4.00002"/>
<polygon fill="#28613c" stroke="#28613c" points="484.583,-42.873 494.64,-38.5015 487.947,-39.1736 491.31,-35.4742 491.31,-35.4742 491.31,-35.4742 487.947,-39.1736 487.981,-32.4468 484.583,-42.873 484.583,-42.873"/>
</g>
<!-- Batch&#45;&gt;BatchTutor -->
<g id="edge7" class="edge"><title>Batch&#45;&gt;BatchTutor</title>
<path fill="none" stroke="#e24603" d="M328.889,-216.955C310.292,-206.704 286.06,-193.348 266.359,-182.489"/>
<ellipse fill="none" stroke="#e24603" cx="332.665" cy="-219.036" rx="4.00002" ry="4.00002"/>
<polygon fill="#e24603" stroke="#e24603" points="266.137,-182.367 259.552,-173.599 261.758,-179.953 257.38,-177.54 257.38,-177.54 257.38,-177.54 261.758,-179.953 255.207,-181.481 266.137,-182.367 266.137,-182.367"/>
</g>
<!-- Batch&#45;&gt;Student -->
<g id="edge11" class="edge"><title>Batch&#45;&gt;Student</title>
<path fill="none" stroke="#5af975" d="M392.802,-219.81C396.246,-218.518 399.69,-217.23 403,-216 439.115,-202.578 480.391,-187.518 509.645,-176.892"/>
<polygon fill="#5af975" stroke="#5af975" points="392.569,-219.898 381.625,-219.21 387.89,-221.66 383.21,-223.421 383.21,-223.421 383.21,-223.421 387.89,-221.66 384.796,-227.633 392.569,-219.898 392.569,-219.898"/>
<polygon fill="#5af975" stroke="#5af975" points="509.68,-176.879 520.615,-177.697 514.38,-175.173 519.08,-173.467 519.08,-173.467 519.08,-173.467 514.38,-175.173 517.544,-169.237 509.68,-176.879 509.68,-176.879"/>
</g>
<!-- BatchStudent -->
<g id="node12" class="node"><title>BatchStudent</title>
<ellipse fill="none" stroke="black" cx="358" cy="-162" rx="57.2688" ry="18"/>
<text text-anchor="middle" x="358" y="-158.3" font-family="Times,serif" font-size="14.00">BatchStudent</text>
</g>
<!-- Batch&#45;&gt;BatchStudent -->
<g id="edge10" class="edge"><title>Batch&#45;&gt;BatchStudent</title>
<path fill="none" stroke="#92ad96" d="M358,-207.64C358,-202.063 358,-196.132 358,-190.476"/>
<ellipse fill="none" stroke="#92ad96" cx="358" cy="-211.697" rx="4" ry="4"/>
<polygon fill="#92ad96" stroke="#92ad96" points="358,-190.104 362.5,-180.104 358,-185.104 358,-180.104 358,-180.104 358,-180.104 358,-185.104 353.5,-180.104 358,-190.104 358,-190.104"/>
</g>
<!-- Batch&#45;&gt;Course -->
<g id="edge9" class="edge"><title>Batch&#45;&gt;Course</title>
<path fill="none" stroke="#b7b451" d="M393.373,-220.158C414.077,-211.301 439.668,-197.888 458,-180 476.147,-162.292 489.626,-136.582 497.988,-117.342"/>
<polygon fill="#b7b451" stroke="#b7b451" points="393.203,-220.228 382.243,-219.86 388.577,-222.125 383.952,-224.023 383.952,-224.023 383.952,-224.023 388.577,-222.125 385.66,-228.187 393.203,-220.228 393.203,-220.228"/>
<polygon fill="#b7b451" stroke="#b7b451" points="498.054,-117.183 506.047,-109.675 499.973,-112.566 501.891,-107.948 501.891,-107.948 501.891,-107.948 499.973,-112.566 497.736,-106.221 498.054,-117.183 498.054,-117.183"/>
</g>
<!-- FeesPaid -->
<g id="node8" class="node"><title>FeesPaid</title>
<ellipse fill="none" stroke="black" cx="553" cy="-327" rx="42.3701" ry="18"/>
<text text-anchor="middle" x="553" y="-323.3" font-family="Times,serif" font-size="14.00">FeesPaid</text>
</g>
<!-- Student&#45;&gt;BatchCourse -->
<g id="edge12" class="edge"><title>Student&#45;&gt;BatchCourse</title>
<path fill="none" stroke="#11cd9d" d="M554.095,-136.146C557.405,-117.86 559.469,-92.6901 552,-72 548.083,-61.1487 540.87,-50.9495 533.401,-42.4519"/>
<ellipse fill="none" stroke="#11cd9d" cx="553.302" cy="-140.101" rx="4.00001" ry="4.00001"/>
<polygon fill="#11cd9d" stroke="#11cd9d" points="533.399,-42.4498 529.839,-32.0777 529.978,-38.8031 526.557,-35.1564 526.557,-35.1564 526.557,-35.1564 529.978,-38.8031 523.275,-38.2352 533.399,-42.4498 533.399,-42.4498"/>
</g>
<!-- Student&#45;&gt;Course -->
<g id="edge13" class="edge"><title>Student&#45;&gt;Course</title>
<path fill="none" stroke="#d17358" d="M533.427,-135.497C529.837,-129.215 525.996,-122.492 522.414,-116.224"/>
<polygon fill="#d17358" stroke="#d17358" points="533.559,-135.729 534.613,-146.644 536.04,-140.07 538.521,-144.411 538.521,-144.411 538.521,-144.411 536.04,-140.07 542.428,-142.178 533.559,-135.729 533.559,-135.729"/>
<polygon fill="#d17358" stroke="#d17358" points="522.373,-116.152 521.318,-105.237 519.892,-111.811 517.411,-107.47 517.411,-107.47 517.411,-107.47 519.892,-111.811 513.504,-109.703 522.373,-116.152 522.373,-116.152"/>
</g>
<!-- ProjectStatus -->
<g id="node11" class="node"><title>ProjectStatus</title>
<ellipse fill="none" stroke="black" cx="728" cy="-234" rx="57.2927" ry="18"/>
<text text-anchor="middle" x="728" y="-230.3" font-family="Times,serif" font-size="14.00">ProjectStatus</text>
</g>
<!-- ProjectStatus&#45;&gt;Project -->
<g id="edge14" class="edge"><title>ProjectStatus&#45;&gt;Project</title>
<path fill="none" stroke="#4f1d1c" d="M713.025,-209.176C708.774,-202.414 704.133,-195.029 699.833,-188.188"/>
<ellipse fill="none" stroke="#4f1d1c" cx="715.22" cy="-212.668" rx="4.00002" ry="4.00002"/>
<polygon fill="#4f1d1c" stroke="#4f1d1c" points="699.572,-187.773 698.06,-176.912 696.911,-183.54 694.25,-179.307 694.25,-179.307 694.25,-179.307 696.911,-183.54 690.44,-181.702 699.572,-187.773 699.572,-187.773"/>
</g>
<!-- Course&#45;&gt;BatchCourse -->
<g id="edge15" class="edge"><title>Course&#45;&gt;BatchCourse</title>
<path fill="none" stroke="#ab3d49" d="M508,-63.6398C508,-58.0629 508,-52.1319 508,-46.4761"/>
<ellipse fill="none" stroke="#ab3d49" cx="508" cy="-67.6966" rx="4" ry="4"/>
<polygon fill="#ab3d49" stroke="#ab3d49" points="508,-46.1043 512.5,-36.1043 508,-41.1043 508,-36.1043 508,-36.1043 508,-36.1043 508,-41.1043 503.5,-36.1044 508,-46.1043 508,-46.1043"/>
</g>
<!-- Course&#45;&gt;CourseSyllabus -->
<g id="edge16" class="edge"><title>Course&#45;&gt;CourseSyllabus</title>
<path fill="none" stroke="#81a6f1" d="M471.726,-76.4298C439.111,-65.1274 390.934,-48.4326 354.92,-35.9524"/>
<ellipse fill="none" stroke="#81a6f1" cx="475.707" cy="-77.8094" rx="4.00001" ry="4.00001"/>
<polygon fill="#81a6f1" stroke="#81a6f1" points="354.556,-35.8265 346.581,-28.3002 349.832,-34.1893 345.108,-32.5521 345.108,-32.5521 345.108,-32.5521 349.832,-34.1893 343.634,-36.8041 354.556,-35.8265 354.556,-35.8265"/>
</g>
<!-- StudentEvaluation -->
<g id="node14" class="node"><title>StudentEvaluation</title>
<ellipse fill="none" stroke="black" cx="417" cy="-327" rx="75.0904" ry="18"/>
<text text-anchor="middle" x="417" y="-323.3" font-family="Times,serif" font-size="14.00">StudentEvaluation</text>
</g>
<!-- StudentEvaluation&#45;&gt;Batch -->
<g id="edge19" class="edge"><title>StudentEvaluation&#45;&gt;Batch</title>
<path fill="none" stroke="#3edf66" d="M401.359,-301.875C392.907,-288.84 382.492,-272.776 373.988,-259.66"/>
<ellipse fill="none" stroke="#3edf66" cx="403.726" cy="-305.527" rx="4.00002" ry="4.00002"/>
<polygon fill="#3edf66" stroke="#3edf66" points="373.894,-259.514 372.229,-248.675 371.174,-255.319 368.454,-251.123 368.454,-251.123 368.454,-251.123 371.174,-255.319 364.678,-253.571 373.894,-259.514 373.894,-259.514"/>
</g>
<!-- StudentEvaluation&#45;&gt;Student -->
<g id="edge17" class="edge"><title>StudentEvaluation&#45;&gt;Student</title>
<path fill="none" stroke="#0ee3eb" d="M415.072,-300.534C414.589,-276.401 417.513,-240.322 436,-216 445.519,-203.476 480.718,-187.963 509.147,-176.964"/>
<ellipse fill="none" stroke="#0ee3eb" cx="415.232" cy="-304.844" rx="4" ry="4"/>
<polygon fill="#0ee3eb" stroke="#0ee3eb" points="509.519,-176.824 520.465,-177.482 514.193,-175.049 518.868,-173.275 518.868,-173.275 518.868,-173.275 514.193,-175.049 517.271,-169.068 509.519,-176.824 509.519,-176.824"/>
</g>
<!-- StudentEvaluation&#45;&gt;Course -->
<g id="edge18" class="edge"><title>StudentEvaluation&#45;&gt;Course</title>
<path fill="none" stroke="#b27cdc" d="M453.517,-306.803C468.217,-299.845 485.557,-292.578 502,-288 564.985,-270.464 750.69,-300.978 794,-252 836.52,-203.916 744.55,-153.756 728,-144 673.25,-111.728 599.848,-99.0785 553.228,-94.1388"/>
<ellipse fill="none" stroke="#b27cdc" cx="449.691" cy="-308.655" rx="4.00002" ry="4.00002"/>
<polygon fill="#b27cdc" stroke="#b27cdc" points="553.081,-94.1245 543.57,-88.6668 548.105,-93.6348 543.129,-93.1452 543.129,-93.1452 543.129,-93.1452 548.105,-93.6348 542.689,-97.6236 553.081,-94.1245 553.081,-94.1245"/>
</g>
</g>
</svg>
